<svg width="175" height="56" viewBox="0 0 175 56" fill="none" xmlns="http://www.w3.org/2000/svg">
<g clip-path="url(#clip0_307_498)">
<path d="M45.92 39L50.272 16.6H53.504L58.96 30.952L64.416 16.6H67.648L72 39H68.016L65.328 25.144L60.288 38.488H57.616L52.576 25.144L49.904 39H45.92ZM84.9898 23H89.1338L80.3818 47H76.2378L79.1338 39L73.3738 23H77.6458L81.0858 33.656L84.9898 23ZM92.3263 39L96.6783 16.6H99.9103L105.366 30.952L110.822 16.6H114.054L118.406 39H114.422L111.734 25.144L106.694 38.488H104.022L98.9823 25.144L96.3103 39H92.3263ZM121.374 33.08V23H125.278V32.056C125.278 32.6853 125.432 33.2613 125.742 33.784C126.051 34.296 126.462 34.7067 126.974 35.016C127.496 35.3147 128.067 35.464 128.686 35.464C129.326 35.464 129.902 35.3147 130.414 35.016C130.926 34.7067 131.336 34.296 131.646 33.784C131.955 33.2613 132.11 32.6853 132.11 32.056V23H136.014L136.03 39H132.126L132.11 37.544C131.555 38.12 130.899 38.5787 130.142 38.92C129.384 39.2507 128.574 39.416 127.71 39.416C126.547 39.416 125.486 39.1333 124.526 38.568C123.566 37.992 122.798 37.2293 122.222 36.28C121.656 35.32 121.374 34.2533 121.374 33.08ZM143.953 39.288C143.121 39.2347 142.315 39.0693 141.536 38.792C140.769 38.504 140.086 38.1147 139.489 37.624C138.891 37.1333 138.433 36.5467 138.113 35.864L141.409 34.456C141.537 34.6693 141.745 34.8987 142.033 35.144C142.321 35.3787 142.662 35.576 143.057 35.736C143.462 35.896 143.905 35.976 144.385 35.976C144.79 35.976 145.174 35.9227 145.536 35.816C145.91 35.6987 146.209 35.5227 146.433 35.288C146.667 35.0533 146.785 34.7493 146.785 34.376C146.785 33.9813 146.646 33.6773 146.369 33.464C146.102 33.24 145.761 33.0747 145.345 32.968C144.939 32.8507 144.545 32.744 144.161 32.648C143.147 32.4453 142.203 32.1307 141.329 31.704C140.465 31.2773 139.766 30.728 139.233 30.056C138.71 29.3733 138.449 28.552 138.449 27.592C138.449 26.536 138.726 25.624 139.281 24.856C139.846 24.088 140.577 23.496 141.473 23.08C142.379 22.664 143.355 22.456 144.401 22.456C145.67 22.456 146.833 22.7227 147.889 23.256C148.955 23.7787 149.798 24.52 150.417 25.48L147.329 27.304C147.179 27.048 146.971 26.8133 146.705 26.6C146.438 26.376 146.134 26.1947 145.793 26.056C145.451 25.9067 145.094 25.8213 144.721 25.8C144.241 25.7787 143.803 25.8213 143.409 25.928C143.014 26.0347 142.694 26.216 142.449 26.472C142.214 26.728 142.097 27.0693 142.097 27.496C142.097 27.9013 142.257 28.2053 142.577 28.408C142.897 28.6 143.281 28.7493 143.729 28.856C144.187 28.9627 144.625 29.08 145.041 29.208C145.979 29.5173 146.859 29.896 147.681 30.344C148.513 30.792 149.179 31.3413 149.681 31.992C150.182 32.6427 150.422 33.4213 150.401 34.328C150.401 35.3627 150.091 36.2693 149.473 37.048C148.854 37.816 148.054 38.4027 147.073 38.808C146.102 39.2133 145.062 39.3733 143.953 39.288ZM152.764 23H156.668V39H152.764V23ZM154.748 20.936C154.172 20.936 153.686 20.7493 153.292 20.376C152.897 19.992 152.7 19.512 152.7 18.936C152.7 18.3707 152.897 17.896 153.292 17.512C153.686 17.128 154.166 16.936 154.732 16.936C155.297 16.936 155.772 17.128 156.156 17.512C156.55 17.896 156.748 18.3707 156.748 18.936C156.748 19.512 156.556 19.992 156.172 20.376C155.788 20.7493 155.313 20.936 154.748 20.936ZM170.059 34.184L173.579 36.088C172.843 37.0907 171.92 37.896 170.811 38.504C169.701 39.112 168.491 39.416 167.179 39.416C165.707 39.416 164.363 39.0373 163.147 38.28C161.941 37.5227 160.976 36.5093 160.251 35.24C159.536 33.96 159.179 32.5467 159.179 31C159.179 29.8267 159.387 28.7333 159.803 27.72C160.219 26.696 160.789 25.8 161.515 25.032C162.251 24.2533 163.104 23.6453 164.075 23.208C165.045 22.7707 166.08 22.552 167.179 22.552C168.491 22.552 169.701 22.856 170.811 23.464C171.92 24.072 172.843 24.888 173.579 25.912L170.059 27.8C169.685 27.3733 169.243 27.0427 168.731 26.808C168.229 26.5733 167.712 26.456 167.179 26.456C166.411 26.456 165.717 26.6693 165.099 27.096C164.48 27.512 163.989 28.0667 163.627 28.76C163.264 29.4427 163.083 30.1893 163.083 31C163.083 31.8 163.264 32.5467 163.627 33.24C163.989 33.9227 164.48 34.472 165.099 34.888C165.717 35.304 166.411 35.512 167.179 35.512C167.733 35.512 168.261 35.3947 168.763 35.16C169.264 34.9147 169.696 34.5893 170.059 34.184Z" fill="white"/>
<path d="M15.2911 11.0892L8.09577 12.6399C7.83785 12.6949 7.60657 12.8366 7.44049 13.0415C7.27441 13.2463 7.18356 13.5019 7.18309 13.7657V26.1488C6.6581 25.9664 6.10618 25.8736 5.55042 25.8743C3.03734 25.8743 1 27.7197 1 29.996C1 32.2723 3.03734 34.1177 5.55049 34.1177C7.27758 34.1177 9.00501 33.1789 9.72299 31.5783C10.347 30.1873 10.1008 28.5151 10.1008 27.0233V17.1242L20.01 14.8226C19.9759 12.3744 17.6964 10.5709 15.2912 11.0893L15.2911 11.0892Z" fill="#9155FD"/>
<path d="M15.0566 22.998V36.2556C15.0565 36.2872 15.0489 36.3184 15.0346 36.3466C15.0204 36.3748 14.9997 36.3993 14.9743 36.4181C14.9489 36.437 14.9195 36.4497 14.8884 36.4552C14.8572 36.4607 14.8252 36.4589 14.7949 36.4499C14.3491 36.3225 13.8876 36.2581 13.424 36.2585C10.9108 36.2585 8.87354 38.1039 8.87354 40.3802C8.87354 42.6566 10.9108 44.5019 13.424 44.5019C15.1511 44.5019 16.8785 43.5631 17.5965 41.9625C18.2205 40.5715 17.9744 38.8993 17.9744 37.4075V26.6245C17.9745 26.5481 18.0005 26.474 18.0481 26.4143C18.0958 26.3545 18.1622 26.3127 18.2367 26.2955L27.8835 24.055C27.9332 24.0433 27.9849 24.043 28.0347 24.054C28.0845 24.0651 28.1312 24.0873 28.1713 24.1189C28.2113 24.1505 28.2437 24.1908 28.2661 24.2367C28.2884 24.2826 28.3001 24.3329 28.3003 24.384V35.242C28.3001 35.2737 28.2926 35.3048 28.2783 35.333C28.264 35.3613 28.2434 35.3858 28.218 35.4046C28.1926 35.4235 28.1632 35.4362 28.132 35.4417C28.1009 35.4472 28.0689 35.4454 28.0386 35.4364C27.5928 35.309 27.1313 35.2445 26.6676 35.245C24.1545 35.245 22.1172 37.0903 22.1172 39.3667C22.1172 41.6431 24.1545 43.4884 26.6676 43.4884C28.1884 43.4884 29.7006 42.7011 30.5535 41.413C31.38 40.1648 31.2184 38.8537 31.218 37.4434C31.2172 34.9282 31.2172 32.413 31.218 29.8979V19.8426C31.2175 19.6909 31.183 19.5412 31.1172 19.4044C31.0513 19.2677 30.9557 19.1475 30.8374 19.0525C30.719 18.9575 30.5809 18.8902 30.4332 18.8555C30.2854 18.8209 30.1318 18.8197 29.9836 18.852L15.9693 21.8722C15.7114 21.9272 15.4801 22.069 15.314 22.2738C15.1479 22.4787 15.0571 22.7343 15.0566 22.998Z" fill="#FAC33F"/>
<path d="M26.308 24.384C26.3078 24.3329 26.2961 24.2826 26.2738 24.2367C26.2515 24.1908 26.2191 24.1505 26.179 24.1189C26.1389 24.0873 26.0923 24.0651 26.0424 24.054C25.9926 24.043 25.9409 24.0433 25.8912 24.055L16.2444 26.2955C16.17 26.3127 16.1035 26.3545 16.0559 26.4143C16.0082 26.474 15.9822 26.5481 15.9821 26.6245V37.4075C15.9821 38.8993 16.2282 40.5715 15.6043 41.9626C15.0241 43.2559 13.7846 44.1168 12.4189 44.3998C12.7496 44.4676 13.0863 44.5018 13.4239 44.5019C15.151 44.5019 16.8785 43.5631 17.5964 41.9625C18.2204 40.5715 17.9743 38.8993 17.9743 37.4075V26.6245C17.9744 26.5481 18.0004 26.474 18.0481 26.4143C18.0957 26.3545 18.1621 26.3127 18.2366 26.2955L26.308 24.4209V24.384ZM13.0623 36.2727C12.8491 36.2877 12.637 36.3165 12.4275 36.3588C12.5545 36.3847 12.6799 36.4147 12.8026 36.4499C12.8315 36.4584 12.8619 36.4603 12.8916 36.4557C12.9213 36.451 12.9496 36.4397 12.9745 36.4228C12.9993 36.4058 13.0201 36.3835 13.0353 36.3576C13.0505 36.3316 13.0597 36.3026 13.0623 36.2726V36.2727ZM31.2179 37.4434C31.2171 34.9282 31.2171 32.413 31.2179 29.8979V19.8426C31.2174 19.6909 31.183 19.5412 31.1171 19.4044C31.0512 19.2677 30.9556 19.1475 30.8373 19.0525C30.7189 18.9575 30.5808 18.8902 30.4331 18.8555C30.2853 18.8209 30.1317 18.8197 29.9835 18.852L28.8856 19.0887C28.9926 19.183 29.0783 19.299 29.1369 19.429C29.1956 19.559 29.2258 19.7 29.2257 19.8426V37.4434C29.2262 38.8536 29.3877 40.1648 28.5612 41.413C27.8792 42.4207 26.8344 43.1263 25.6449 43.3826C25.9812 43.4528 26.3239 43.4882 26.6675 43.4884C28.1882 43.4884 29.7005 42.7011 30.5534 41.413C31.3799 40.1648 31.2184 38.8537 31.2179 37.4434ZM26.306 35.2591C26.0927 35.2742 25.8807 35.303 25.6712 35.3453C25.7982 35.3711 25.9235 35.4012 26.0463 35.4364C26.0752 35.4449 26.1056 35.4469 26.1353 35.4422C26.165 35.4375 26.1933 35.4262 26.2181 35.4093C26.243 35.3923 26.2637 35.37 26.2789 35.3441C26.2941 35.3181 26.3033 35.2891 26.306 35.2591Z" fill="#F7A701"/>
</g>
<defs>
<clipPath id="clip0_307_498">
<rect width="175" height="56" fill="white"/>
</clipPath>
</defs>
</svg>
